<?xml version="1.0" encoding="UTF-8" standalone="no"?>
<!-- Created with Inkscape (http://www.inkscape.org/) -->

<svg
    width="253.93608mm"
    height="242.5692mm"
    viewBox="0 0 253.93608 242.5692"
    version="1.1"
    id="svg5"
    xml:space="preserve"
    sodipodi:docname="Network47.svg"
    inkscape:version="1.2.2 (b0a8486541, 2022-12-01)"
    xmlns:inkscape="http://www.inkscape.org/namespaces/inkscape"
    xmlns:sodipodi="http://sodipodi.sourceforge.net/DTD/sodipodi-0.dtd"
    xmlns="http://www.w3.org/2000/svg"
    xmlns:svg="http://www.w3.org/2000/svg">
   <defs
     id="defs2" /><g
     inkscape:label="Layer 1"
     inkscape:groupmode="layer"
     id="layer1"
     transform="translate(-1.0267177,-7.9699808)"><g
       id="layer2"><rect
         style="display:inline;fill:#ffbb00;fill-opacity:1;stroke-width:0.316543;stroke-linecap:round;stroke-linejoin:round"
         id="rect778"
         width="245.79507"
         height="235.02876"
         x="5.0972195"
         y="11.740196" /></g><path
       style="fill:#000000;stroke-width:0.192328"
       d="m 6.7320068,250.32227 c -2.8532054,-0.90589 -4.7893732,-2.99251 -5.3848059,-5.80321 -0.42731095,-2.01712 -0.42731095,-228.555576 0,-230.572677 0.5209943,-2.45933 1.9469244,-4.2306969 4.3270024,-5.3752354 L 6.9243348,7.9699808 H 127.99476 249.06518 l 1.25013,0.6011668 c 2.38008,1.1445385 3.80602,2.9159054 4.327,5.3752354 0.42731,2.017101 0.42731,228.555557 0,230.572677 -0.52098,2.45932 -1.94692,4.23069 -4.327,5.37524 l -1.25013,0.60116 -120.78193,0.0355 C 31.097844,250.55958 7.3510221,250.51886 6.7320068,250.32227 Z M 247.76491,246.57056 c 1.17872,-0.22806 2.10097,-0.93352 2.64986,-2.02694 l 0.47753,-0.95133 V 129.23272 14.873146 l -0.47753,-0.95132 c -0.54889,-1.093425 -1.47114,-1.79889 -2.64986,-2.026948 -1.06596,-0.206242 -238.4743433,-0.206242 -239.540305,0 -1.1787171,0.228058 -2.1009791,0.933523 -2.6498485,2.026948 l -0.477537,0.95132 V 129.23272 243.59229 l 0.477537,0.95133 c 0.5331853,1.06217 1.4804149,1.80859 2.562121,2.01898 0.9950325,0.19352 238.6281625,0.20141 239.6280325,0.008 z M 15.482927,233.66677 v -2.11561 H 126.93695 238.39098 v 2.11561 2.1156 H 126.93695 15.482927 Z M 47.601689,215.87644 V 205.77922 H 75.200745 102.7998 v 10.09722 10.09721 H 75.200745 47.601689 Z m -32.31109,-0.19233 v -10.09722 h 5.769838 5.769837 v 10.09722 10.09721 h -5.769837 -5.769838 z m 107.703631,0 v -10.09722 h 5.866 5.86601 v 10.09722 10.09721 h -5.86601 -5.866 z m 34.61903,0 v -10.09722 h 5.76983 5.76984 v 10.09722 10.09721 h -5.76984 -5.76983 z m 34.61902,0 v -10.09722 h 5.76984 5.76984 v 10.09722 10.09721 h -5.76984 -5.76984 z m 34.61903,0 v -10.09722 h 5.76983 5.76984 v 10.09722 10.09721 h -5.76984 -5.76983 z M 15.482927,197.12447 v -2.11561 H 126.93695 238.39098 v 2.11561 2.1156 H 126.93695 15.482927 Z M 225.12036,182.60371 v -3.36574 h -1.25014 -1.25013 v -0.57698 -0.57699 h 3.26958 3.26957 v 0.57699 0.57698 h -1.25013 -1.25013 v 3.36574 3.36574 h -0.76931 -0.76931 z m 4.80819,-0.57698 V 178.084 h 0.91822 0.91821 l 0.96972,2.92988 0.96973,2.92987 1.02296,-2.92987 1.02295,-2.92988 h 0.93567 0.93566 v 3.94273 3.94272 h -0.66757 -0.66755 l -0.0537,-2.54835 -0.0537,-2.54834 -0.87774,2.50026 -0.87775,2.50026 -0.68211,0.0581 -0.68209,0.0581 -0.84426,-2.44396 -0.84425,-2.44395 -0.0538,2.43394 -0.0538,2.43395 h -0.6674 -0.6674 z m -139.726227,0.58006 c -0.499695,-0.17442 -1.182342,-0.70949 -1.947828,-1.52677 -1.98163,-2.11568 -1.889876,-1.66204 -1.957785,-9.67941 l -0.05905,-6.97189 H 54.057743 c -17.698952,0 -32.472011,-0.0576 -32.829019,-0.12793 -0.698878,-0.13775 -2.490165,-1.82758 -3.417218,-3.22367 l -0.501464,-0.75518 -0.06001,-19.82391 c -0.04255,-14.05577 0.0023,-20.11276 0.154242,-20.81665 0.17282,-0.80077 0.389,-1.1547 1.117818,-1.83013 1.964778,-1.82084 52.405395,-43.552711 53.076668,-43.912801 0.705268,-0.378324 1.084314,-0.384656 23.02711,-0.384656 25.69557,0 22.94587,-0.234971 24.97549,2.134246 0.92731,1.082456 1.26079,1.638649 1.43499,2.393309 0.16849,0.729944 0.22693,7.789908 0.22693,27.413552 v 26.43041 l 6.01025,0.001 c 3.50283,5.8e-4 6.30573,0.0831 6.71853,0.1978 0.49542,0.1376 1.08121,0.59952 1.94919,1.53702 2.12711,2.29739 1.9584,1.04684 1.9584,14.51574 0,13.28685 0.13529,12.12687 -1.65991,14.23226 -1.72927,2.02808 -1.23858,1.91477 -8.57913,1.98098 l -6.39733,0.0577 v 6.44436 c 0,4.19634 -0.077,6.7592 -0.22072,7.34692 -0.40234,1.64527 -2.5401,4.05561 -3.94227,4.44495 -0.49357,0.13705 -4.98416,0.20339 -13.43501,0.19849 -10.353754,-0.006 -12.835452,-0.0569 -13.462952,-0.2759 z m 26.910997,-3.79825 0.88039,-1.00642 v -8.22532 -8.22532 h 7.48587 7.48588 l 0.88038,-1.00642 0.8804,-1.00642 v -11.16162 -11.16163 l -0.8804,-1.00642 -0.88038,-1.00641 h -7.48588 -7.48587 V 106.81413 78.625707 l -0.8174,-0.949158 -0.81739,-0.949157 -21.733055,0.0046 -21.733055,0.0046 -26.25276,21.791636 -26.252761,21.791632 -0.04899,19.43609 -0.04899,19.43608 0.907843,1.07976 0.907844,1.07977 H 55.81708 89.529175 v 8.22532 8.22532 l 0.880391,1.00642 0.880388,1.00642 h 12.471486 12.47149 z m -24.581889,-2.3735 c -0.06454,-0.16818 -0.117337,-3.81243 -0.117337,-8.09834 0,-8.70742 -3.85e-4,-8.71079 -1.318689,-9.53054 L 90.394651,158.3704 56.929593,158.2742 23.464536,158.178 v -18.26938 -18.26938 l 25.291121,-21.00397 25.291121,-21.003981 20.386759,0.03846 20.386763,0.03846 0.0962,28.079871 0.0962,28.07987 0.43577,0.70076 c 0.86198,1.38613 0.99388,1.40764 9.03809,1.47367 l 7.16593,0.0588 -0.0498,10.03839 -0.0498,10.0384 -7.34279,0.0962 c -7.03694,0.0922 -7.3649,0.11268 -7.87356,0.4927 -0.29192,0.2181 -0.70921,0.63541 -0.92731,0.92735 -0.38221,0.51163 -0.40001,0.82731 -0.4927,8.73904 l -0.0962,8.20823 -11.08577,0.0496 c -9.984134,0.0447 -11.097422,0.0192 -11.203099,-0.25614 z m -1.764535,-38.83606 c 0.416293,-0.21156 0.935579,-0.62898 1.153967,-0.92759 0.392989,-0.53737 0.397592,-0.71376 0.448289,-17.17766 0.05714,-18.55563 0.129341,-17.51341 -1.273747,-18.38593 -0.6379,-0.39669 -0.933644,-0.43577 -3.297181,-0.43577 h -2.596427 l -1.383465,1.0578 c -8.189134,6.26145 -38.57145,30.23655 -38.874384,30.6763 -0.218607,0.31734 -0.454271,1.01192 -0.523697,1.5435 -0.255758,1.95829 0.666587,3.54499 2.272214,3.90885 0.496127,0.11243 9.097227,0.17273 22.065295,0.1547 20.841365,-0.029 21.266867,-0.037 22.009136,-0.4142 z m -43.322829,-3.02734 c 0.04469,-0.31334 5.361837,-4.5871 19.486578,-15.66269 l 19.425119,-15.23177 1.586706,-0.012 1.586705,-0.012 v 15.67472 15.67473 H 68.455892 47.382608 Z M 86.2596,119.89346 c 0,-9.57523 -0.04909,-12.00199 -0.24041,-11.88564 -0.24314,0.14787 -29.012739,22.64145 -30.017912,23.46958 l -0.543657,0.44791 H 70.85861 86.2596 Z m 64.94052,62.72024 c -1.11658,-0.40119 -1.56491,-0.93935 -2.47142,-2.96655 -0.70166,-1.56911 -0.82787,-2.04238 -0.82713,-3.10177 l 9.6e-4,-1.25013 21.87388,-33.0804 21.87388,-33.0804 -28.22157,-0.10677 c -15.52196,-0.0587 -28.47835,-0.18057 -28.79209,-0.27077 -0.72607,-0.20874 -2.86086,-2.43191 -3.42346,-3.56518 l -0.42966,-0.86547 V 91.24796 78.169663 l 0.42693,-0.865476 c 0.23481,-0.476011 0.97046,-1.434704 1.63479,-2.130429 0.96889,-1.014688 1.38642,-1.309584 2.11042,-1.490542 0.67915,-0.169746 13.12842,-0.223504 50.29375,-0.217169 46.04182,0.0078 49.45598,0.03067 50.34679,0.336574 0.77768,0.267061 1.19391,0.604714 2.23573,1.81361 0.89727,1.041171 1.34488,1.742543 1.49658,2.345019 0.30836,1.224614 0.27257,24.13063 -0.0394,25.24526 -0.136,0.48587 -10.17909,16.20756 -25.40394,39.76797 -20.45252,31.65019 -25.30837,39.04488 -25.86811,39.393 l -0.68909,0.42856 -17.69417,0.0417 c -14.64703,0.0345 -17.82151,-0.004 -18.43363,-0.22402 z m 60.12071,-41.43605 24.95455,-38.63326 V 90.583857 78.623328 l -0.79942,-0.948061 -0.79943,-0.948063 h -49.51117 -49.51118 l -0.84099,0.913557 -0.84099,0.913558 -0.008,12.638443 -0.008,12.638448 0.81739,0.95419 0.81739,0.95419 30.98069,0.0626 30.98069,0.0626 -19.01363,28.75302 c -10.4575,15.81416 -20.96907,31.71757 -23.35905,35.34092 l -4.34542,6.58789 0.43603,1.00906 c 0.23981,0.55498 0.55442,1.29033 0.69912,1.63412 l 0.2631,0.62507 17.06652,-0.002 17.06652,-0.002 24.95455,-38.63326 z m -56.78482,35.37627 c 0,-0.10108 10.31473,-15.78451 22.92162,-34.85205 l 22.92162,-34.66828 0.0135,-1.19526 c 0.0154,-1.36001 -0.33921,-2.0123 -1.44908,-2.66604 -0.6438,-0.37921 -1.08773,-0.38602 -31.32935,-0.48082 l -30.6763,-0.0962 V 91.151796 79.708286 l 48.13006,-0.04846 48.13006,-0.04846 V 90.544582 101.4778 l -23.96744,37.10105 c -13.18206,20.40558 -24.13623,37.33906 -24.34256,37.62996 l -0.37514,0.5289 h -14.98848 c -9.39973,0 -14.98848,-0.0685 -14.98848,-0.18379 z M 16.059911,59.225365 V 57.109758 H 127.51394 238.96797 v 2.115607 2.115607 H 127.51394 16.059911 Z M 152.0727,51.7037 c -3.28781,-0.382 -4.75042,-1.783724 -5.19974,-4.983306 -0.54791,-3.901589 -0.39773,-10.930422 0.27826,-13.023499 0.6849,-2.120684 2.24178,-3.176122 5.17302,-3.50689 2.24562,-0.253401 15.64088,-0.253401 17.8865,0 2.93386,0.331064 4.57367,1.450357 5.2037,3.551914 0.15856,0.528902 0.38441,2.327714 0.50188,3.997362 0.24412,3.469505 -0.012,8.805792 -0.50047,10.42723 -0.63353,2.102938 -2.27186,3.220919 -5.20511,3.551914 -2.05166,0.231512 -16.11699,0.220094 -18.13804,-0.01473 z m 15.8301,-5.845124 c 1.18661,-0.593304 1.33932,-1.088935 1.39256,-4.519705 0.0559,-3.599511 -0.2003,-4.643132 -1.2964,-5.28158 -0.63807,-0.371664 -0.98379,-0.392093 -6.63531,-0.392093 -5.21913,0 -6.05291,0.04108 -6.69032,0.329652 -1.19169,0.539508 -1.38112,1.218045 -1.38454,4.959365 -0.005,5.437106 -0.10171,5.377607 8.65185,5.322003 4.76983,-0.0303 5.25552,-0.06432 5.96216,-0.417642 z M 17.598534,40.954215 V 30.183853 h 5.75866 5.758659 l 5.60909,7.981607 c 3.085001,4.389885 5.736447,7.981608 5.892102,7.981608 0.245597,0 0.274683,-1.05523 0.220008,-7.9817 l -0.063,-7.9817 3.317657,9.2e-5 3.317656,9.3e-5 v 10.770362 10.770362 h -5.661284 -5.661283 l -5.627692,-7.981608 c -3.376903,-4.789372 -5.749607,-7.981607 -5.932514,-7.981607 -0.274554,0 -0.297157,0.79256 -0.22763,7.981607 l 0.07719,7.981608 h -3.388807 -3.388808 z m 32.31109,0 V 30.183853 h 11.924331 11.924331 v 2.596426 2.596427 H 65.10353 56.448773 v 1.442459 1.442459 h 8.173937 8.173936 v 2.402012 2.40201 l -8.125854,0.05017 -8.125855,0.05017 v 1.634787 1.634787 l 8.702838,0.05004 8.702839,0.05004 v 2.594466 2.594467 H 61.930119 49.909624 Z m 34.426697,2.788754 v -7.981607 h -4.808198 -4.808198 v -2.788755 -2.788754 h 12.982135 12.98213 v 2.788754 2.788755 h -4.71203 -4.712034 v 7.981607 7.981608 h -3.461902 -3.461903 z m 24.829439,7.54887 c -0.13457,-0.355814 -7.55753,-20.074383 -7.8572,-20.872106 -0.0728,-0.193832 0.62062,-0.233961 3.32344,-0.192328 l 3.41546,0.05261 2.82671,7.885443 2.82671,7.885444 0.5772,0.05799 0.57721,0.05799 0.80486,-2.654414 c 0.44267,-1.459928 1.52407,-5.034471 2.40313,-7.94343 l 1.59828,-5.289017 h 4.0138 4.0138 l 2.41027,7.933525 2.41027,7.933526 h 0.58107 0.58106 l 2.86879,-7.981608 2.8688,-7.981607 h 3.54044 c 1.94724,0 3.51158,0.07485 3.47632,0.166338 -0.0353,0.09149 -1.92212,4.939527 -4.19302,10.773424 l -4.12892,10.607086 -5.09003,-0.05114 -5.09003,-0.05114 -1.95221,-7.116132 c -1.07371,-3.913873 -2.01991,-7.375775 -2.10266,-7.693116 -0.12444,-0.477213 -0.49415,0.686765 -2.1381,6.731477 -1.09321,4.019653 -2.03683,7.503192 -2.09693,7.741197 l -0.10928,0.432738 h -5.09778 -5.09779 z m 69.02658,-10.35105 V 30.157002 l 11.4916,0.06273 c 12.78348,0.06979 12.12295,0.0017 13.68367,1.411656 1.12188,1.01357 1.42001,2.160306 1.42784,5.492216 0.004,1.620106 -0.0921,2.963123 -0.25241,3.535794 -0.31769,1.134694 -1.25486,2.117107 -2.32567,2.437926 l -0.78901,0.236394 0.80769,0.23848 c 0.44423,0.131166 1.02597,0.439616 1.29275,0.685446 0.8669,0.798808 1.01247,1.45671 1.01247,4.575834 v 2.891096 h -3.26958 -3.26957 v -1.833292 c 0,-2.119175 -0.30072,-3.071721 -1.06102,-3.360784 -0.29299,-0.111391 -2.94425,-0.191105 -6.35613,-0.191105 h -5.85348 v 2.692591 2.69259 h -3.26957 -3.26958 z m 19.36631,-0.64307 c 0.51303,-0.441283 0.53963,-0.545244 0.53963,-2.108737 0,-1.313324 -0.0682,-1.712745 -0.33845,-1.983037 -0.4673,-0.467299 -2.29477,-0.606666 -8.17206,-0.623227 l -4.85628,-0.01368 v 2.596426 2.596427 h 6.14377 6.14378 z m 9.29055,0.656496 V 30.183853 h 3.26958 3.26957 v 3.846558 3.846558 h 1.80621 1.80621 l 4.20404,-3.935556 4.20404,-3.935558 4.96846,-0.0072 c 2.99043,-0.0043 4.94296,0.06417 4.90436,0.172028 -0.0352,0.09856 -2.74707,2.486252 -6.02626,5.305992 -3.27919,2.819741 -5.96217,5.194575 -5.96217,5.277408 0,0.08284 2.85607,2.463823 6.34682,5.291083 3.49075,2.82726 6.47355,5.261726 6.62845,5.409924 0.24181,0.231361 -0.42874,0.269451 -4.74333,0.269451 h -5.02495 l -4.82847,-4.135049 -4.82847,-4.13505 h -1.72747 -1.72747 v 4.13505 4.135049 h -3.26957 -3.26958 V 40.954205 Z M 16.059911,22.683065 V 20.567458 H 127.51394 238.96797 v 2.115607 2.115607 H 127.51394 16.059911 Z"
       id="path302" /></g></svg>